# xmcd
#
# Track frame offsets: 
#        150
#        23564
#        49711
#        69534
#        71092
#        89325
#        116415
#        135914
#        138266
#        154944
#        177002
#        199857
#        232095
#        262634
#        298827
#        324695
#
# Disc length: 4372 seconds
#
# Revision: 0
# Processed by: cddbd v1.5.2PL0 Copyright (c) Steve Scherf et al.
# Submitted via: ExactAudioCopy v0.99pb3
#
DISCID=e0111210
DTITLE=Jimi Bott - Bott and Paid For!
DYEAR=2006
DGENRE=Blues
TTITLE0=Jumpin' With Jimi
TTITLE1=(Oh) I'm Slippin'
TTITLE2=Your Eyes (Give You Away)
TTITLE3=Introduction
TTITLE4=Blue Midnight
TTITLE5=Kiss Me Or Cuss
TTITLE6=My First Crime
TTITLE7=Rockinitis Drum Intro
TTITLE8=Rockinitis
TTITLE9=The Alchemist
TTITLE10=(Oh Baby) You Don't Have To Go
TTITLE11=Leave Me Alone
TTITLE12=(Funky) Tin Pan Alley
TTITLE13=Bott and Paid For!
TTITLE14=Toothache
TTITLE15=Jokin
EXTD=
EXTT0=
EXTT1=
EXTT2=
EXTT3=
EXTT4=
EXTT5=
EXTT6=
EXTT7=
EXTT8=
EXTT9=
EXTT10=
EXTT11=
EXTT12=
EXTT13=
EXTT14=
EXTT15=
PLAYORDER=
